<svg width="21" height="20" viewBox="0 0 21 20" fill="none" xmlns="http://www.w3.org/2000/svg">
<path d="M11.7767 4.51032C11.7767 3.95803 11.329 3.51032 10.7767 3.51032H9.19642L9.83221 2.23883L13.1388 1.29413C13.4515 1.20479 13.6325 0.878874 13.5432 0.566176V0.566176C13.4539 0.253485 13.1279 0.0724248 12.8152 0.161766L9.01051 1.24884L7.87979 3.51032H0.999999C0.447715 3.51032 0 3.95803 0 4.51032V5.45449C0 6.00678 0.447715 6.45449 1 6.45449H10.7767C11.329 6.45449 11.7767 6.00678 11.7767 5.45449V4.51032Z" fill="#C3C4C9"/>
<path d="M8.24454 15.8758H18.8436V17.0535H8.24454V15.8758Z" fill="#C3C4C9"/>
<path d="M5.8874 14.6984C5.8874 11.7933 7.80995 9.32882 10.4495 8.51026V8.51026C10.4842 8.03613 10.1089 7.63239 9.63347 7.63239H2.843C2.00439 7.63239 1.34681 8.35247 1.42273 9.18763L2.24015 18.179C2.3338 19.2091 3.19753 19.9979 4.23193 19.9979H6.20427C6.00317 19.6512 5.8874 19.2491 5.8874 18.8202V14.6984Z" fill="#C3C4C9"/>
<path d="M7.06519 14.6982H20.0196C20.0196 11.776 17.6422 9.39868 14.72 9.39868H12.3647C9.44255 9.39868 7.06519 11.776 7.06519 14.6982Z" fill="#C3C4C9"/>
<path d="M7.06519 18.8201C7.06519 19.4695 7.59349 19.9978 8.24286 19.9978H18.8407C19.49 19.9978 20.0183 19.4695 20.0183 18.8201V18.2313H7.06519V18.8201Z" fill="#C3C4C9"/>
</svg>
